<svg width="62" height="32" viewBox="0 0 62 32" fill="none" xmlns="http://www.w3.org/2000/svg">
<rect x="3.04431" y="2.96859" width="25.8731" height="25.8682" stroke="white" stroke-width="0.32"/>
<rect x="31.9243" y="2.96859" width="25.8731" height="25.8682" stroke="white" stroke-width="0.32"/>
<path d="M18.6492 23.5616V17.9919H21.7351V23.8678C21.7351 24.2847 21.8305 24.5816 22.0214 24.7585C22.2133 24.9356 22.4694 25.0241 22.7898 25.0241C23.1108 25.0241 23.3691 24.9356 23.5648 24.7585C23.7604 24.5816 23.8595 24.2847 23.8595 23.8678V17.9919H26.9308V23.5616C26.9308 24.2263 26.8308 24.791 26.6305 25.2566C26.4308 25.7222 26.1495 26.1004 25.7895 26.3935C25.4285 26.6866 24.9921 26.8991 24.4802 27.031C23.968 27.1648 23.4042 27.231 22.7898 27.231C22.1846 27.231 21.6277 27.1648 21.1202 27.031C20.613 26.8992 20.1761 26.6866 19.8114 26.3935C19.4458 26.1004 19.1605 25.7222 18.9564 25.2566C18.7511 24.791 18.6492 24.2263 18.6492 23.5616ZM13.1989 24.9575C13.1989 25.0191 13.2292 25.0503 13.292 25.0503C13.3358 25.0503 13.3586 25.019 13.3586 24.9575C13.4386 24.3722 13.541 23.7326 13.6658 23.0366C13.7873 22.3579 13.912 21.6797 14.0398 21.0022C14.1646 20.3428 14.2848 19.7418 14.4002 19.2022C14.5161 18.6606 14.6051 18.2584 14.668 17.9918H17.5533V26.9918H15.817V19.4146C15.817 19.3699 15.7852 19.3481 15.7233 19.3481C15.688 19.3481 15.6698 19.3699 15.6698 19.4146C15.5906 19.8105 15.5149 20.2071 15.443 20.6043C15.362 21.0427 15.2646 21.5565 15.1482 22.1459C15.0123 22.8357 14.8723 23.5247 14.7282 24.2128C14.5635 25.0022 14.3695 25.9278 14.147 26.9918H12.3429C12.1504 26.0884 11.9612 25.1842 11.7754 24.2794C11.6378 23.6106 11.5018 22.9416 11.3675 22.2722C11.2643 21.7584 11.1619 21.2444 11.0603 20.7303C10.9743 20.2912 10.8853 19.8526 10.7931 19.4147C10.7931 19.37 10.7618 19.3482 10.6994 19.3482C10.6643 19.3482 10.6462 19.37 10.6462 19.4147V26.9919H9.05688V17.9919H11.9553C12.0124 18.2438 12.066 18.4964 12.1159 18.7498C12.1775 19.0607 12.2475 19.4076 12.3225 19.7935C12.3987 20.1779 12.4759 20.591 12.5569 21.0286C12.6366 21.4686 12.7169 21.9154 12.7972 22.3723C12.8758 22.8192 12.9493 23.2669 13.0178 23.7154C13.081 24.1291 13.1413 24.5431 13.1989 24.9575ZM4.702 17.9919H5.5836V26.3272H8.14832V26.9919H4.702V17.9919ZM33.7433 16.4498V14.5385H34.0995V16.1663H35.0495V16.4498H33.7433ZM36.3502 16.4888C35.9389 16.4888 35.5511 16.341 35.5511 15.6854V14.5385H35.9086V15.7182C35.9086 16.0213 36.0539 16.226 36.3502 16.226C36.6415 16.226 36.7837 16.0347 36.7837 15.7182V14.5385H37.1409V15.6854C37.1408 16.2944 36.7451 16.4888 36.3502 16.4888ZM38.4283 14.8088H38.2255V16.177H38.4283C38.8346 16.177 39.0567 15.997 39.0567 15.4807C39.0567 15.0329 38.842 14.8088 38.4283 14.8088ZM38.4446 16.4498H37.8683V14.5385H38.4446C39.1252 14.5385 39.4295 14.9316 39.4295 15.4806C39.4295 16.1088 39.062 16.4498 38.4446 16.4498ZM41.9023 16.4498H41.523L41.1526 15.1088L40.7823 16.4498H40.4036L39.822 14.5385H40.2195L40.6095 16.0347L40.9774 14.6941H41.3554L41.7214 16.0347L42.1083 14.5385H42.4817L41.9023 16.4498ZM43.022 14.5385H43.3789V16.4498H43.022V14.5385ZM44.9708 16.4888C44.389 16.4888 44.0408 16.0894 44.0408 15.4778C44.0408 14.8166 44.5261 14.5 44.9708 14.5C45.2839 14.5 45.4867 14.5984 45.6161 14.7131L45.4702 14.9806C45.3661 14.8631 45.2239 14.7566 44.9708 14.7566C44.6495 14.7566 44.4108 15.0438 44.4108 15.4778C44.4108 15.9228 44.6495 16.2316 44.987 16.2316C45.1821 16.2316 45.2949 16.1822 45.3411 16.1391V15.6526H44.913V15.3904H45.6848V16.3082C45.5195 16.4091 45.2974 16.4888 44.9708 16.4888ZM46.1758 15.475H46.9251V15.7129H46.1758V15.475ZM35.4754 19.9622L35.4098 18.5091L34.9233 19.6998H34.5992L34.1026 18.5091L34.0449 19.9622H33.6964L33.8089 18.0498H34.2539L34.7777 19.3169L35.2751 18.0498H35.7195L35.8317 19.9622H35.4754ZM37.237 18.4054L36.938 19.241H37.5418L37.237 18.4054ZM37.8023 19.9622L37.6348 19.4973H36.8504L36.6804 19.9622H36.3038L37.067 18.0498H37.4407L38.1979 19.9622H37.8023ZM39.9514 19.9622L39.4326 19.191L38.9036 19.9622H38.4751L39.2108 18.971L38.5326 18.0498H38.9802L39.4523 18.7598L39.9133 18.0498H40.3417L39.6661 18.971L40.3989 19.9622H39.9514ZM40.9233 18.0498H41.2805V19.9622H40.9233V18.0498ZM43.7783 19.9622L43.7117 18.5091L43.2261 19.6998H42.902L42.4054 18.5091L42.3477 19.9622H41.9992L42.112 18.0498H42.5567L43.0805 19.3169L43.5777 18.0498H44.0226L44.1346 19.9622H43.7783ZM44.8539 18.0498H45.2102V19.9622H44.8539V18.0498ZM47.2826 19.9622V19.6778H46.3333V18.0498H45.9761V19.9622H47.2826ZM47.8898 18.0498H48.2461V19.9622H47.8898V18.0498ZM49.7095 18.4054L49.4102 19.241H50.0139L49.7095 18.4054ZM50.2746 19.9622L50.107 19.4973H49.3221L49.1521 19.9622H48.7762L49.5386 18.0498H49.9121L50.6702 19.9622H50.2746ZM52.3411 19.9622L51.5402 18.5366V19.9622H51.1883V18.0498H51.6551L52.457 19.4754V18.0498H52.8077V19.9622H52.3411ZM54.8417 19.4316C54.8417 19.1429 54.6664 19.006 54.4495 18.9129L54.0708 18.7522C53.9524 18.7029 53.829 18.6372 53.829 18.5004C53.829 18.391 53.9252 18.2686 54.1365 18.2686C54.3755 18.2686 54.5099 18.3748 54.6196 18.5092L54.7709 18.2717C54.6327 18.1076 54.3918 18.0117 54.1365 18.0117C53.829 18.0117 53.4637 18.192 53.4637 18.5607C53.4637 18.796 53.6227 18.9514 53.829 19.0389L54.2077 19.1998C54.3558 19.263 54.4683 19.3336 54.4683 19.4842C54.4683 19.6067 54.3558 19.7436 54.1146 19.7436C53.8702 19.7436 53.7114 19.6342 53.5733 19.4786L53.423 19.7186C53.5133 19.8255 53.7302 19.9999 54.1089 19.9999C54.6851 19.9998 54.8417 19.6285 54.8417 19.4316ZM55.3002 18.9866H56.0492V19.2248H55.3002V18.9866ZM34.5149 23.5122C34.1027 23.5122 33.7162 23.3638 33.7162 22.7091V21.5616H34.0724V22.741C34.0724 23.0441 34.218 23.2497 34.5149 23.2497C34.8052 23.2497 34.9483 23.0584 34.9483 22.741V21.5616H35.3046V22.7091C35.3046 23.3178 34.9102 23.5122 34.5149 23.5122ZM37.1854 23.4732L36.3836 22.0472V23.4732H36.032V21.5616H36.4989L37.3005 22.9872V21.5616H37.6511V23.4732H37.1854ZM38.417 21.5616H38.7742V23.4732H38.417V21.5616ZM40.3902 23.4732H40.012L39.2483 21.5616H39.652L40.2095 23.1129L40.7667 21.5616H41.1536L40.3902 23.4732ZM41.6826 23.4732V21.5616H42.9702V21.8403H42.0398V22.3429H42.8964V22.616H42.0398V23.1898H43.0064V23.4732H41.6826ZM44.2823 21.8316H43.9745V22.3866H44.2823C44.5574 22.3866 44.6254 22.2529 44.6254 22.0942C44.6254 21.9498 44.5126 21.8316 44.2823 21.8316ZM44.7242 23.4732L44.3377 22.8973C44.2386 22.7498 44.1533 22.6482 44.0633 22.6482H43.9746V23.4732H43.6183V21.5616H44.3511C44.6886 21.5616 44.9933 21.7388 44.9933 22.0941C44.9933 22.4544 44.6692 22.5888 44.5046 22.6075C44.5598 22.6428 44.6308 22.7357 44.6558 22.7716L45.1502 23.4732H44.7242ZM46.2149 23.5122C45.8358 23.5122 45.6193 23.3366 45.5283 23.231L45.6793 22.9903C45.8171 23.1459 45.9762 23.2553 46.2202 23.2553C46.4618 23.2553 46.5743 23.1184 46.5743 22.9959C46.5743 22.845 46.4618 22.7741 46.3137 22.7115L45.935 22.5502C45.7287 22.4627 45.5697 22.3074 45.5697 22.0721C45.5697 21.7034 45.935 21.523 46.2421 21.523C46.4977 21.523 46.7387 21.6183 46.8765 21.7824L46.7256 22.0199C46.6159 21.8865 46.4815 21.7802 46.2421 21.7802C46.0309 21.7802 45.935 21.9027 45.935 22.0121C45.935 22.149 46.0584 22.2146 46.1766 22.2637L46.5547 22.4246C46.7716 22.5178 46.9478 22.6543 46.9478 22.9434C46.9477 23.1403 46.7911 23.5122 46.2149 23.5122ZM47.5898 21.5616H47.947V23.4732H47.5898V21.5616ZM49.4808 21.846V23.4732H49.1246V21.846H48.4792V21.5616H50.1258V21.846H49.4808ZM51.6136 21.3872C51.5118 21.3872 51.4274 21.2997 51.4274 21.2034C51.4274 21.1084 51.5095 21.021 51.6136 21.021C51.7177 21.021 51.8002 21.1085 51.8002 21.2034C51.8002 21.2998 51.7158 21.3872 51.6136 21.3872ZM51.3442 21.9169L51.0452 22.7522H51.649L51.3442 21.9169ZM51.0836 21.3872C50.9823 21.3872 50.8974 21.2997 50.8974 21.2034C50.8974 21.1084 50.9792 21.021 51.0836 21.021C51.1883 21.021 51.2708 21.1085 51.2708 21.2034C51.2708 21.2998 51.1851 21.3872 51.0836 21.3872ZM51.9105 23.4732L51.743 23.0091H50.9574L50.7877 23.4732H50.4118L51.1742 21.5616H51.548L52.3052 23.4732H51.9105ZM53.592 21.846V23.4732H53.2358V21.846H52.5911V21.5616H54.2377V21.846H53.592ZM35.4754 26.9847L35.4098 25.5326L34.9233 26.7232H34.5992L34.1026 25.5326L34.0449 26.9847H33.6964L33.8089 25.0732H34.2539L34.7777 26.3403L35.2751 25.0732H35.7195L35.8317 26.9847H35.4754ZM37.5505 24.8982C37.4483 24.8982 37.3633 24.8106 37.3633 24.7154C37.3633 24.6201 37.4461 24.5326 37.5505 24.5326C37.6542 24.5326 37.7398 24.6201 37.7398 24.7154C37.7398 24.8106 37.6511 24.8982 37.5505 24.8982ZM37.0202 24.8982C36.9192 24.8982 36.8339 24.8106 36.8339 24.7154C36.8339 24.6201 36.9161 24.5326 37.0202 24.5326C37.1242 24.5326 37.2098 24.6201 37.2098 24.7154C37.2098 24.8106 37.122 24.8982 37.0202 24.8982ZM37.3117 27.0232C36.8995 27.0232 36.513 26.8763 36.513 26.2201V25.0732H36.8692V26.2535C36.8692 26.5566 37.0148 26.7617 37.3117 26.7617C37.602 26.7617 37.7451 26.5701 37.7451 26.2535V25.0732H38.1014V26.2201C38.1014 26.8294 37.707 27.0232 37.3117 27.0232ZM39.9823 26.9847L39.1805 25.5598V26.9847H38.8289V25.0732H39.2958L40.0974 26.4991V25.0732H40.448V26.9847H39.9823ZM42.0102 27.0232C41.3902 27.0232 41.0989 26.5429 41.0989 26.0154C41.0989 25.4991 41.4526 25.0347 42.0102 25.0347C42.2852 25.0347 42.4989 25.1254 42.6446 25.2778L42.5042 25.5434C42.397 25.4231 42.2908 25.2972 42.0158 25.2972C41.6914 25.2972 41.4724 25.6116 41.4724 26.0154C41.4724 26.4116 41.7083 26.7616 42.019 26.7616C42.2471 26.7616 42.3971 26.6847 42.559 26.5122L42.6962 26.7857C42.4739 26.9554 42.3126 27.0232 42.0102 27.0232ZM44.4664 26.9847V26.1191H43.6105V26.9847H43.2536V25.0732H43.6105V25.8575H44.4664V25.0732H44.8233V26.9847H44.4664ZM45.5786 26.9847V25.0732H46.8658V25.3522H45.9354V25.8544H46.7917V26.1278H45.9354V26.7013H46.9014V26.9847H45.5786ZM48.6664 26.9847L47.8649 25.5598V26.9847H47.5133V25.0732H47.9795L48.7817 26.4991V25.0732H49.1333V26.9847H48.6664Z" fill="white"/>
</svg>
