<svg width="36" height="38" viewBox="0 0 36 38" fill="none" xmlns="http://www.w3.org/2000/svg">
<g filter="url(#filter0_di_1444_9755)">
<path d="M30 21C30 24.3117 28.6692 27.3287 26.5 29.5C25.4004 30.6006 23.2231 32.2673 21.3413 33.6448C19.3221 35.1227 16.5897 35.111 14.5811 33.619C12.7298 32.2438 10.5934 30.5878 9.5 29.4976C7.32115 27.3251 6 24.32 6 21C6 14.3726 11.3726 9 18 9C24.6274 9 30 14.3726 30 21Z" fill="#75DB70"/>
<path d="M29.5 21C29.5 24.1758 28.2243 27.0667 26.1463 29.1466C25.0786 30.2153 22.9333 31.8598 21.0459 33.2413C19.204 34.5895 16.7122 34.5791 14.8792 33.2176C13.023 31.8387 10.9164 30.2038 9.85304 29.1436C7.7665 27.0631 6.5 24.1847 6.5 21C6.5 14.6487 11.6487 9.5 18 9.5C24.3513 9.5 29.5 14.6487 29.5 21Z" stroke="white" stroke-opacity="0.3"/>
</g>
<path fill-rule="evenodd" clip-rule="evenodd" d="M13.5 15.5C13.7761 15.5 14 15.7239 14 16V19.5C14 19.7739 14.2261 20 14.5 20H15V16C15 15.7239 15.2239 15.5 15.5 15.5C15.7761 15.5 16 15.7239 16 16V20H16.5C16.6326 20 16.7598 19.9473 16.8536 19.8536C16.9473 19.7598 17 19.6326 17 19.5V16C17 15.7239 17.2239 15.5 17.5 15.5C17.7761 15.5 18 15.7239 18 16V19.5C18 19.8978 17.842 20.2794 17.5607 20.5607C17.2794 20.842 16.8978 21 16.5 21H16V26C16 26.2761 15.7761 26.5 15.5 26.5C15.2239 26.5 15 26.2761 15 26V21H14.5C13.6739 21 13 20.3261 13 19.5V16C13 15.7239 13.2239 15.5 13.5 15.5ZM20.3787 16.3787C20.9413 15.8161 21.7044 15.5 22.5 15.5C22.6326 15.5 22.7598 15.5527 22.8536 15.6464C22.9473 15.7402 23 15.8674 23 16V26C23 26.2761 22.7761 26.5 22.5 26.5C22.2239 26.5 22 26.2761 22 26V23H21C20.1739 23 19.5 22.3261 19.5 21.5V18.5C19.5 17.7044 19.8161 16.9413 20.3787 16.3787ZM22 22V16.5635C21.657 16.6521 21.3406 16.831 21.0858 17.0858C20.7107 17.4609 20.5 17.9696 20.5 18.5V21.5C20.5 21.7739 20.7261 22 21 22H22Z" fill="white" fill-opacity="0.95"/>
<defs>
<filter id="filter0_di_1444_9755" x="4" y="8" width="28" height="29.7456" filterUnits="userSpaceOnUse" color-interpolation-filters="sRGB">
<feFlood flood-opacity="0" result="BackgroundImageFix"/>
<feColorMatrix in="SourceAlpha" type="matrix" values="0 0 0 0 0 0 0 0 0 0 0 0 0 0 0 0 0 0 127 0" result="hardAlpha"/>
<feOffset dy="1"/>
<feGaussianBlur stdDeviation="1"/>
<feComposite in2="hardAlpha" operator="out"/>
<feColorMatrix type="matrix" values="0 0 0 0 0 0 0 0 0 0 0 0 0 0 0 0 0 0 0.8 0"/>
<feBlend mode="normal" in2="BackgroundImageFix" result="effect1_dropShadow_1444_9755"/>
<feBlend mode="normal" in="SourceGraphic" in2="effect1_dropShadow_1444_9755" result="shape"/>
<feColorMatrix in="SourceAlpha" type="matrix" values="0 0 0 0 0 0 0 0 0 0 0 0 0 0 0 0 0 0 127 0" result="hardAlpha"/>
<feOffset dy="1"/>
<feGaussianBlur stdDeviation="0.5"/>
<feComposite in2="hardAlpha" operator="arithmetic" k2="-1" k3="1"/>
<feColorMatrix type="matrix" values="0 0 0 0 1 0 0 0 0 1 0 0 0 0 1 0 0 0 0.45 0"/>
<feBlend mode="normal" in2="shape" result="effect2_innerShadow_1444_9755"/>
</filter>
</defs>
</svg>
