<svg width="48" height="53" viewBox="0 0 48 53" fill="none" xmlns="http://www.w3.org/2000/svg">
<path d="M48 24.4717C48 31.095 45.3385 37.1292 41 41.4717C38.4349 44.0392 32.9375 48.1469 28.8657 51.0803C25.9009 53.2161 21.9194 53.1999 18.9705 51.0425C14.957 48.1062 9.55477 44.0143 7 41.467C2.6423 37.1219 0 31.1117 0 24.4717C0 11.2168 10.7452 0.47168 24 0.47168C37.2548 0.47168 48 11.2168 48 24.4717Z" fill="#6DCC68"/>
<path d="M46.9048 24.4717C46.9048 30.7974 44.3638 36.5552 40.2252 40.6976C37.7349 43.1902 32.3159 47.2449 28.2255 50.1917C25.6458 52.0501 22.1837 52.0363 19.6171 50.1586C15.5868 47.2099 10.2575 43.1684 7.77331 40.6914C3.61779 36.5479 1.09521 30.8152 1.09521 24.4717C1.09521 11.8217 11.35 1.56689 24 1.56689C36.65 1.56689 46.9048 11.8217 46.9048 24.4717Z" stroke="white" stroke-opacity="0.3" stroke-width="2.19042"/>
</svg>
