<svg width="24" height="24" viewBox="0 0 24 24" fill="none" xmlns="http://www.w3.org/2000/svg">
<path d="M13.076 1.46885C12.8738 1.05929 12.4567 0.800003 12 0.800003C11.5432 0.800003 11.1261 1.05929 10.9239 1.46885L8.11285 7.16376L1.82641 8.08262C1.37454 8.14867 0.99932 8.46548 0.858466 8.89988C0.717613 9.33429 0.835541 9.811 1.16268 10.1296L5.71054 14.5592L4.63723 20.8172C4.56001 21.2674 4.74511 21.7224 5.11468 21.9909C5.48425 22.2593 5.9742 22.2947 6.3785 22.0821L12 19.1258L17.6214 22.0821C18.0257 22.2947 18.5157 22.2593 18.8852 21.9909C19.2548 21.7224 19.4399 21.2674 19.3627 20.8172L18.2894 14.5592L22.8372 10.1296C23.1644 9.811 23.2823 9.33429 23.1415 8.89988C23.0006 8.46548 22.6254 8.14867 22.1735 8.08262L15.8871 7.16376L13.076 1.46885Z" fill="#868686"/>
</svg>
