<svg width="49" height="24" viewBox="0 0 49 24" fill="none" xmlns="http://www.w3.org/2000/svg">
<path fill-rule="evenodd" clip-rule="evenodd" d="M2 0C0.895431 0 0 0.89543 0 2V22C0 23.1046 0.89543 24 2 24H39V22H41V24H47C48.1046 24 49 23.1046 49 22V16C46.7909 16 45 14.2091 45 12C45 9.79086 46.7909 8 49 8V2C49 0.895431 48.1046 0 47 0H41V2L39 2V0H2ZM39 10V6H41V10H39ZM39 18V14H41V18H39Z" fill="black" fill-opacity="0.05"/>
<path d="M4.56889 10.5V3.95455H7.18963C7.67116 3.95455 8.0728 4.02592 8.39453 4.16868C8.71626 4.31143 8.9581 4.50959 9.12003 4.76314C9.28196 5.01456 9.36293 5.30433 9.36293 5.63246C9.36293 5.88814 9.31179 6.11293 9.20952 6.30682C9.10724 6.49858 8.96662 6.65625 8.78764 6.77983C8.6108 6.90128 8.40838 6.98757 8.1804 7.03871V7.10263C8.42969 7.11328 8.663 7.18359 8.88033 7.31357C9.09979 7.44354 9.2777 7.62571 9.41406 7.86009C9.55043 8.09233 9.61861 8.36932 9.61861 8.69105C9.61861 9.03835 9.53232 9.34837 9.35973 9.62109C9.18928 9.89169 8.93679 10.1058 8.60227 10.2635C8.26776 10.4212 7.85547 10.5 7.36541 10.5H4.56889ZM5.95277 9.36861H7.08097C7.46662 9.36861 7.74787 9.2951 7.92472 9.14808C8.10156 8.99893 8.18999 8.80078 8.18999 8.55362C8.18999 8.37251 8.14631 8.21271 8.05895 8.07422C7.97159 7.93572 7.84695 7.82706 7.68501 7.74822C7.52521 7.66939 7.33452 7.62997 7.11293 7.62997H5.95277V9.36861ZM5.95277 6.69354H6.97869C7.16832 6.69354 7.33665 6.66051 7.48366 6.59446C7.63281 6.52628 7.75 6.4304 7.83523 6.30682C7.92259 6.18324 7.96626 6.03516 7.96626 5.86257C7.96626 5.62607 7.8821 5.43537 7.71378 5.29048C7.54759 5.1456 7.31108 5.07315 7.00426 5.07315H5.95277V6.69354ZM12.0973 10.5H10.6143L12.8739 3.95455H14.6573L16.9137 10.5H15.4307L13.7912 5.45028H13.74L12.0973 10.5ZM12.0046 7.9272H15.5074V9.00746H12.0046V7.9272ZM21.5529 5.837C21.5273 5.57919 21.4176 5.37891 21.2237 5.23615C21.0298 5.09339 20.7667 5.02202 20.4343 5.02202C20.2084 5.02202 20.0177 5.05398 19.8622 5.1179C19.7066 5.17969 19.5873 5.26598 19.5042 5.37678C19.4233 5.48757 19.3828 5.61328 19.3828 5.75391C19.3785 5.87109 19.403 5.97337 19.4563 6.06072C19.5117 6.14808 19.5873 6.22372 19.6832 6.28764C19.7791 6.34943 19.8899 6.40376 20.0156 6.45064C20.1413 6.49538 20.2755 6.53374 20.4183 6.5657L21.0064 6.70632C21.2919 6.77024 21.5539 6.85547 21.7926 6.962C22.0312 7.06854 22.2379 7.19957 22.4126 7.35511C22.5873 7.51065 22.7226 7.69389 22.8185 7.90483C22.9165 8.11577 22.9666 8.3576 22.9687 8.63033C22.9666 9.03089 22.8643 9.3782 22.6619 9.67223C22.4616 9.96413 22.1718 10.1911 21.7926 10.353C21.4154 10.5128 20.9605 10.5927 20.4279 10.5927C19.8995 10.5927 19.4392 10.5117 19.0472 10.3498C18.6573 10.1879 18.3526 9.94815 18.1331 9.63068C17.9158 9.31108 17.8018 8.91584 17.7912 8.44496H19.1303C19.1452 8.66442 19.2081 8.84766 19.3189 8.99467C19.4318 9.13956 19.582 9.24929 19.7695 9.32386C19.9591 9.39631 20.1733 9.43253 20.4119 9.43253C20.6463 9.43253 20.8498 9.39844 21.0223 9.33026C21.1971 9.26207 21.3324 9.16726 21.4282 9.04581C21.5241 8.92436 21.5721 8.7848 21.5721 8.62713C21.5721 8.48011 21.5284 8.35653 21.441 8.25639C21.3558 8.15625 21.2301 8.07102 21.0639 8.00071C20.8998 7.9304 20.6985 7.86648 20.4598 7.80895L19.7471 7.62997C19.1953 7.49574 18.7596 7.28587 18.4399 7.00036C18.1203 6.71484 17.9616 6.33026 17.9637 5.84659C17.9616 5.45028 18.0671 5.10405 18.2801 4.80788C18.4953 4.51172 18.7904 4.28054 19.1654 4.11435C19.5404 3.94815 19.9666 3.86506 20.4439 3.86506C20.9297 3.86506 21.3537 3.94815 21.7159 4.11435C22.0802 4.28054 22.3636 4.51172 22.566 4.80788C22.7684 5.10405 22.8728 5.44709 22.8792 5.837H21.5529ZM25.7334 3.95455V10.5H24.3496V3.95455H25.7334ZM33.0972 6.24609H31.6974C31.6718 6.06499 31.6196 5.90412 31.5408 5.76349C31.4619 5.62074 31.3607 5.49929 31.2371 5.39915C31.1136 5.29901 30.9708 5.2223 30.8089 5.16903C30.6491 5.11577 30.4754 5.08913 30.2879 5.08913C29.9491 5.08913 29.654 5.1733 29.4026 5.34162C29.1512 5.50781 28.9562 5.75071 28.8178 6.07031C28.6793 6.38778 28.61 6.77344 28.61 7.22727C28.61 7.69389 28.6793 8.08594 28.8178 8.40341C28.9584 8.72088 29.1544 8.96058 29.4058 9.12251C29.6572 9.28445 29.9481 9.36541 30.2783 9.36541C30.4637 9.36541 30.6352 9.34091 30.7929 9.2919C30.9527 9.2429 31.0944 9.17152 31.218 9.07777C31.3415 8.98189 31.4438 8.86577 31.5248 8.7294C31.6079 8.59304 31.6654 8.4375 31.6974 8.26278L33.0972 8.26918C33.061 8.5696 32.9705 8.85938 32.8256 9.13849C32.6828 9.41548 32.49 9.66371 32.2471 9.88317C32.0063 10.1005 31.7187 10.2731 31.3842 10.4009C31.0518 10.5266 30.6757 10.5895 30.256 10.5895C29.6722 10.5895 29.1501 10.4574 28.6899 10.1932C28.2318 9.92898 27.8696 9.54652 27.6033 9.04581C27.3391 8.5451 27.207 7.93892 27.207 7.22727C27.207 6.51349 27.3412 5.90625 27.6097 5.40554C27.8781 4.90483 28.2425 4.52344 28.7027 4.26136C29.1629 3.99716 29.6807 3.86506 30.256 3.86506C30.6352 3.86506 30.9868 3.91832 31.3107 4.02486C31.6366 4.13139 31.9254 4.28693 32.1768 4.49148C32.4282 4.69389 32.6327 4.94212 32.7904 5.23615C32.9502 5.53018 33.0525 5.86683 33.0972 6.24609Z" fill="black" fill-opacity="0.67"/>
<path d="M4.43466 13.6577V12.9545H9.34375V13.6577H7.28551V19.5H6.4929V13.6577H4.43466ZM10.9096 12.9545V19.5H10.117V12.9545H10.9096ZM17.3159 15H16.5233C16.4764 14.772 16.3944 14.5717 16.2772 14.3991C16.1621 14.2266 16.0215 14.0817 15.8553 13.9645C15.6913 13.8452 15.5091 13.7557 15.3088 13.696C15.1085 13.6364 14.8997 13.6065 14.6824 13.6065C14.2861 13.6065 13.9271 13.7067 13.6053 13.907C13.2857 14.1072 13.0311 14.4023 12.8415 14.7923C12.654 15.1822 12.5602 15.6605 12.5602 16.2273C12.5602 16.794 12.654 17.2724 12.8415 17.6623C13.0311 18.0522 13.2857 18.3473 13.6053 18.5476C13.9271 18.7479 14.2861 18.848 14.6824 18.848C14.8997 18.848 15.1085 18.8182 15.3088 18.7585C15.5091 18.6989 15.6913 18.6104 15.8553 18.4933C16.0215 18.3739 16.1621 18.228 16.2772 18.0554C16.3944 17.8807 16.4764 17.6804 16.5233 17.4545H17.3159C17.2563 17.7891 17.1476 18.0884 16.9899 18.3526C16.8322 18.6168 16.6362 18.8416 16.4018 19.027C16.1675 19.2102 15.9043 19.3498 15.6124 19.4457C15.3227 19.5415 15.0126 19.5895 14.6824 19.5895C14.1241 19.5895 13.6277 19.4531 13.193 19.1804C12.7584 18.9077 12.4164 18.5199 12.1671 18.017C11.9178 17.5142 11.7932 16.9176 11.7932 16.2273C11.7932 15.5369 11.9178 14.9403 12.1671 14.4375C12.4164 13.9347 12.7584 13.5469 13.193 13.2741C13.6277 13.0014 14.1241 12.8651 14.6824 12.8651C15.0126 12.8651 15.3227 12.913 15.6124 13.0089C15.9043 13.1048 16.1675 13.2454 16.4018 13.4308C16.6362 13.614 16.8322 13.8377 16.9899 14.1019C17.1476 14.364 17.2563 14.6634 17.3159 15ZM18.1467 19.5V12.9545H18.9393V16.2017H19.016L21.9564 12.9545H22.9919L20.2433 15.9077L22.9919 19.5H22.0331L19.7575 16.4574L18.9393 17.3778V19.5H18.1467ZM23.5678 19.5V12.9545H27.5181V13.6577H24.3604V15.8693H27.3135V16.5724H24.3604V18.7969H27.5692V19.5H23.5678ZM28.1388 13.6577V12.9545H33.0479V13.6577H30.9896V19.5H30.197V13.6577H28.1388Z" fill="black" fill-opacity="0.67"/>
</svg>
